<svg width="36" height="31" viewBox="0 0 36 31" fill="none" xmlns="http://www.w3.org/2000/svg">
<path d="M32.7333 3.68345C31.8821 2.83179 30.8714 2.15619 29.7589 1.69525C28.6465 1.23432 27.4541 0.99707 26.25 0.99707C25.0459 0.99707 23.8535 1.23432 22.7411 1.69525C21.6286 2.15619 20.6179 2.83179 19.7667 3.68345L19.5256 3.92447C18.683 4.76706 17.3169 4.76706 16.4744 3.92447L16.2333 3.68345C14.5138 1.96396 12.1817 0.997962 9.75 0.997962C7.31827 0.997962 4.98615 1.96396 3.26666 3.68345C1.54717 5.40293 0.581177 7.73506 0.581177 10.1668C0.581177 12.5985 1.54717 14.9306 3.26666 16.6501L5.03333 18.4168L16.4744 29.8578C17.3169 30.7004 18.683 30.7004 19.5256 29.8578L30.9667 18.4168L32.7333 16.6501C33.585 15.7989 34.2606 14.7881 34.7215 13.6757C35.1825 12.5633 35.4197 11.3709 35.4197 10.1668C35.4197 8.96263 35.1825 7.77029 34.7215 6.65785C34.2606 5.54542 33.585 4.53471 32.7333 3.68345Z" fill="url(#paint0_linear_1_302)"/>
<defs>
<linearGradient id="paint0_linear_1_302" x1="30.6758" y1="13.2717" x2="10.385" y2="39.175" gradientUnits="userSpaceOnUse">
<stop stop-color="#E96FF3"/>
<stop offset="1" stop-color="#0D55F9"/>
</linearGradient>
</defs>
</svg>
