<svg xmlns="http://www.w3.org/2000/svg" xmlns:xlink="http://www.w3.org/1999/xlink" viewBox="0 0 400 400" width="400" height="400" preserveAspectRatio="xMidYMid slice" style="width: 100%; height: 100%; transform: translate3d(0px, 0px, 0px); content-visibility: visible;"><defs><clipPath id="__lottie_element_2"><rect width="400" height="400" x="0" y="0"></rect></clipPath></defs><g clip-path="url(#__lottie_element_2)"><g id="burger_3" transform="matrix(1,0,0,1,200,199.875)" opacity="1" style="display: block;"><g class="barre_3" opacity="1" transform="matrix(1,0,0,1,0,75)"><path fill="rgb(93,106,129)" fill-opacity="1" d=" M110,0 C110,0 110,0 110,0 C110,5.519000053405762 105.51899719238281,10 100,10 C100,10 -100,10 -100,10 C-105.51899719238281,10 -110,5.519000053405762 -110,0 C-110,0 -110,0 -110,0 C-110,-5.519000053405762 -105.51899719238281,-10 -100,-10 C-100,-10 100,-10 100,-10 C105.51899719238281,-10 110,-5.519000053405762 110,0z"></path></g></g><g id="burger_2" transform="matrix(1,0,0,1,200,199.875)" opacity="1" style="display: block;"><g class="barre_2" opacity="1" transform="matrix(1,0,0,1,0,0)"><path fill="rgb(93,106,129)" fill-opacity="1" d=" M110,0 C110,0 110,0 110,0 C110,5.519000053405762 105.51899719238281,10 100,10 C100,10 -100,10 -100,10 C-105.51899719238281,10 -110,5.519000053405762 -110,0 C-110,0 -110,0 -110,0 C-110,-5.519000053405762 -105.51899719238281,-10 -100,-10 C-100,-10 100,-10 100,-10 C105.51899719238281,-10 110,-5.519000053405762 110,0z"></path></g></g><g id="burger_1" transform="matrix(1,0,0,1,200,199.875)" opacity="1" style="display: block;"><g class="barre_1" opacity="1" transform="matrix(1,0,0,1,0,-75)"><path fill="rgb(93,106,129)" fill-opacity="1" d=" M110,0 C110,0 110,0 110,0 C110,5.519000053405762 105.51899719238281,10 100,10 C100,10 -100,10 -100,10 C-105.51899719238281,10 -110,5.519000053405762 -110,0 C-110,0 -110,0 -110,0 C-110,-5.519000053405762 -105.51899719238281,-10 -100,-10 C-100,-10 100,-10 100,-10 C105.51899719238281,-10 110,-5.519000053405762 110,0z"></path></g></g></g></svg>