<svg width="23" height="21" viewBox="0 0 23 21" fill="none" xmlns="http://www.w3.org/2000/svg">
<path d="M22.5185 3.88069C22.3943 3.28913 22.1414 2.74713 21.7853 2.30941C21.4292 1.8717 20.9826 1.55378 20.4904 1.38777C18.6924 0.864258 11.5 0.864258 11.5 0.864258C11.5 0.864258 4.30765 0.864258 2.50956 1.43763C2.01743 1.60364 1.57077 1.92156 1.21467 2.35927C0.858574 2.79698 0.605663 3.33899 0.481482 3.93055C0.152405 6.10631 -0.00856437 8.31349 0.000597597 10.5243C-0.0111325 12.7518 0.149847 14.9758 0.481482 17.168C0.618387 17.7411 0.876964 18.2625 1.23223 18.6818C1.5875 19.101 2.02744 19.4039 2.50956 19.5612C4.30765 20.1345 11.5 20.1345 11.5 20.1345C11.5 20.1345 18.6924 20.1345 20.4904 19.5612C20.9826 19.3951 21.4292 19.0772 21.7853 18.6395C22.1414 18.2018 22.3943 17.6598 22.5185 17.0682C22.8451 14.9089 23.006 12.7185 22.9994 10.5243C23.0111 8.29684 22.8502 6.07284 22.5185 3.88069Z" fill="#F8CB45"/>
<path d="M8.64442 14.5644L15.942 10.499L8.64442 6.43359V14.5644Z" fill="#1A54CA"/>
</svg>
