<svg width="127" height="40" viewBox="0 0 127 40" fill="none" xmlns="http://www.w3.org/2000/svg">
<path opacity="0.1" d="M13.4281 40C19.6073 40 24.6165 39.6246 24.6165 39.1614C24.6165 38.6983 19.6073 38.3228 13.4281 38.3228C7.24894 38.3228 2.23975 38.6983 2.23975 39.1614C2.23975 39.6246 7.24894 40 13.4281 40Z" fill="#0060FF"/>
<path fill-rule="evenodd" clip-rule="evenodd" d="M2.23975 0H13.4281L26.8563 13.4281V33.5693C26.8563 34.8062 25.8533 35.807 24.6186 35.807H2.23975C1.00292 35.807 0.0020752 34.804 0.0020752 33.5693V2.23767C0.0020752 1.00084 1.00503 0 2.23975 0V0Z" fill="#0060FF"/>
<g opacity="0.1">
<path fill-rule="evenodd" clip-rule="evenodd" d="M2.23975 0H13.4281V35.8049H2.23975C1.00292 35.8049 0.0020752 34.8019 0.0020752 33.5672V2.23767C0.0020752 1.00084 1.00503 0 2.23975 0V0Z" fill="url(#paint0_linear_733_1620)"/>
<path fill-rule="evenodd" clip-rule="evenodd" d="M13.4282 0L26.8563 13.426L13.4282 16.7826V0Z" fill="url(#paint1_linear_733_1620)"/>
<path fill-rule="evenodd" clip-rule="evenodd" d="M2.23978 0H13.4281L0 13.4281V2.23978C0 1.00295 1.00295 0.00210588 2.23767 0.00210588L2.23978 0Z" fill="url(#paint2_linear_733_1620)"/>
</g>
<path opacity="0.35" fill-rule="evenodd" clip-rule="evenodd" d="M13.4282 0L26.8563 13.4281H15.6679C14.4311 13.4281 13.4303 12.4252 13.4303 11.1905V0.00210588L13.4282 0Z" fill="white"/>
<path d="M4.78508 22.3705C5.38137 21.8205 6.3485 21.8205 6.94479 22.3705C10.5647 25.7101 16.4349 25.7101 20.0548 22.3705C20.6511 21.8205 21.6182 21.8205 22.2145 22.3705C22.8108 22.9204 22.8108 23.8117 22.2145 24.3616C17.402 28.8011 9.59966 28.8011 4.78718 24.3616C4.19089 23.8117 4.19089 22.9204 4.78718 22.3705H4.78508Z" fill="white"/>
<path d="M35.5225 32.971C36.0008 33.247 36.2389 33.6621 36.2389 34.2184C36.2389 34.6819 36.0746 35.0591 35.748 35.3562C35.4214 35.6533 35.0189 35.8008 34.5406 35.8008H32.2271V30.3456H34.3784C34.8462 30.3456 35.2402 30.4889 35.5583 30.7776C35.8765 31.0662 36.0366 31.4329 36.0366 31.8796C36.0366 32.3263 35.866 32.695 35.5225 32.971ZM34.3763 31.3507H33.3017V32.5517H34.3763C34.5427 32.5517 34.6818 32.4948 34.7935 32.381C34.9052 32.2673 34.9599 32.124 34.9599 31.9533C34.9599 31.7826 34.9052 31.6394 34.7956 31.5256C34.686 31.4118 34.547 31.3549 34.3742 31.3549L34.3763 31.3507ZM34.5406 34.7957C34.7218 34.7957 34.8736 34.7346 34.9937 34.6124C35.1138 34.4902 35.1728 34.3364 35.1728 34.1488C35.1728 33.9613 35.1138 33.8159 34.9937 33.6937C34.8736 33.5715 34.724 33.5104 34.5406 33.5104H33.3017V34.7957H34.5406Z" fill="black"/>
<path d="M39.3173 31.9027H40.3919L38.9718 35.8049C38.7695 36.3612 38.4998 36.7658 38.1669 37.0186C37.8319 37.2714 37.4147 37.3831 36.9174 37.3578V36.4223C37.1871 36.4265 37.402 36.3696 37.5601 36.2516C37.7181 36.1315 37.8445 35.9398 37.9372 35.6743L36.3401 31.9027H37.44L38.4555 34.5218L39.3173 31.9027Z" fill="black"/>
<path d="M43.8222 32.5727C43.9149 32.3241 44.0708 32.1366 44.2857 32.0122C44.5007 31.8879 44.7409 31.8247 45.0063 31.8247V32.9478C44.6987 32.9119 44.4248 32.973 44.1846 33.1353C43.9423 33.2954 43.8222 33.563 43.8222 33.9381V35.8007H42.8171V31.9048H43.8222V32.5748V32.5727Z" fill="black"/>
<path d="M46.2916 34.2646C46.4265 34.7535 46.7931 34.9979 47.3915 34.9979C47.775 34.9979 48.0657 34.8673 48.2638 34.6081L49.075 35.0759C48.6915 35.6321 48.1247 35.9102 47.3767 35.9102C46.732 35.9102 46.2158 35.7164 45.826 35.3266C45.4362 34.9368 45.2423 34.4459 45.2423 33.8538C45.2423 33.2617 45.434 32.7771 45.8196 32.3852C46.2031 31.9933 46.6983 31.7973 47.3009 31.7973C47.8719 31.7973 48.3439 31.9954 48.7147 32.3894C49.0855 32.7834 49.271 33.2722 49.271 33.8538C49.271 33.9844 49.2583 34.1214 49.2309 34.2668H46.2937L46.2916 34.2646ZM46.2769 33.485H48.2638C48.2069 33.2196 48.0889 33.0236 47.9098 32.893C47.7307 32.7623 47.5263 32.697 47.2988 32.697C47.0291 32.697 46.8057 32.7665 46.6287 32.9035C46.4517 33.0405 46.3359 33.2343 46.2769 33.485Z" fill="black"/>
<path d="M50.7417 33.011C50.7417 33.1142 50.8112 33.1985 50.9482 33.2638C51.0852 33.3292 51.2537 33.386 51.4518 33.4345C51.6498 33.483 51.8458 33.5462 52.0439 33.622C52.2419 33.6979 52.4084 33.8243 52.5474 33.9992C52.6844 34.1762 52.7539 34.3974 52.7539 34.6608C52.7539 35.0611 52.6043 35.3688 52.3051 35.5837C52.0059 35.7986 51.633 35.9061 51.1863 35.9061C50.3856 35.9061 49.8399 35.5963 49.5491 34.979L50.4214 34.488C50.5352 34.8252 50.7902 34.9937 51.1842 34.9937C51.5424 34.9937 51.7215 34.882 51.7215 34.6587C51.7215 34.5555 51.652 34.4712 51.515 34.4059C51.378 34.3405 51.2095 34.2815 51.0114 34.231C50.8133 34.1783 50.6174 34.1151 50.4193 34.035C50.2213 33.957 50.0548 33.8348 49.9158 33.6642C49.7788 33.4956 49.7093 33.2828 49.7093 33.03C49.7093 32.6465 49.8504 32.3431 50.1349 32.1218C50.4172 31.9006 50.7691 31.791 51.1905 31.791C51.5066 31.791 51.7952 31.8627 52.0565 32.0059C52.3157 32.1492 52.5222 32.3536 52.6718 32.617L51.8142 33.0847C51.6899 32.8193 51.4813 32.6865 51.1905 32.6865C51.0599 32.6865 50.9524 32.716 50.8681 32.7729C50.7839 32.8298 50.7396 32.9077 50.7396 33.0068L50.7417 33.011Z" fill="black"/>
<path d="M54.1951 34.2646C54.3299 34.7535 54.6965 34.9979 55.2949 34.9979C55.6784 34.9979 55.9692 34.8673 56.1672 34.6081L56.9785 35.0759C56.595 35.6321 56.0282 35.9102 55.2802 35.9102C54.6354 35.9102 54.1192 35.7164 53.7294 35.3266C53.3396 34.9368 53.1458 34.4459 53.1458 33.8538C53.1458 33.2617 53.3375 32.7771 53.7231 32.3852C54.1066 31.9933 54.6017 31.7973 55.2043 31.7973C55.7753 31.7973 56.2473 31.9954 56.6181 32.3894C56.989 32.7834 57.1744 33.2722 57.1744 33.8538C57.1744 33.9844 57.1618 34.1214 57.1344 34.2668H54.1972L54.1951 34.2646ZM54.1803 33.485H56.1672C56.1104 33.2196 55.9924 33.0236 55.8133 32.893C55.6342 32.7623 55.4298 32.697 55.2022 32.697C54.9325 32.697 54.7092 32.7665 54.5322 32.9035C54.3552 33.0405 54.2393 33.2343 54.1803 33.485Z" fill="black"/>
<path d="M60.8028 31.9027H61.8078V35.7986H60.8028V35.3392C60.5015 35.7185 60.0779 35.9081 59.5322 35.9081C58.9865 35.9081 58.5672 35.7101 58.1964 35.3118C57.8255 34.9136 57.638 34.4269 57.638 33.8517C57.638 33.2764 57.8234 32.7876 58.1964 32.3894C58.5672 31.9911 59.0139 31.7931 59.5322 31.7931C60.0779 31.7931 60.5015 31.9827 60.8028 32.362V31.9027ZM58.9486 34.6418C59.1509 34.8462 59.4079 34.9494 59.7198 34.9494C60.0316 34.9494 60.2908 34.8462 60.4951 34.6418C60.6995 34.4374 60.8028 34.174 60.8028 33.8517C60.8028 33.5293 60.6995 33.2659 60.4951 33.0615C60.2908 32.8571 60.0316 32.7539 59.7198 32.7539C59.4079 32.7539 59.1509 32.8571 58.9486 33.0615C58.7463 33.2659 58.6452 33.5314 58.6452 33.8517C58.6452 34.1719 58.7463 34.4374 58.9486 34.6418Z" fill="black"/>
<path d="M63.7253 32.5727C63.818 32.3241 63.9739 32.1366 64.1888 32.0122C64.4037 31.8879 64.6439 31.8247 64.9094 31.8247V32.9478C64.6018 32.9119 64.3279 32.973 64.0877 33.1353C63.8454 33.2954 63.7253 33.563 63.7253 33.9381V35.8007H62.7202V31.9048H63.7253V32.5748V32.5727Z" fill="black"/>
<path d="M67.2019 35.9082C66.614 35.9082 66.1252 35.7101 65.7332 35.3161C65.3413 34.9221 65.1454 34.4332 65.1454 33.8517C65.1454 33.2701 65.3413 32.7813 65.7332 32.3873C66.1252 31.9933 66.614 31.7952 67.2019 31.7952C67.5811 31.7952 67.9267 31.8858 68.2385 32.067C68.5504 32.2482 68.7863 32.4927 68.9486 32.8003L68.0847 33.306C68.0067 33.1458 67.8888 33.0173 67.7307 32.9246C67.5727 32.8319 67.3936 32.7834 67.1976 32.7834C66.8963 32.7834 66.6477 32.8846 66.4496 33.0826C66.2516 33.2828 66.1525 33.5377 66.1525 33.8496C66.1525 34.1614 66.2516 34.4101 66.4496 34.6102C66.6477 34.8104 66.8963 34.9094 67.1976 34.9094C67.3999 34.9094 67.5811 34.8631 67.7391 34.7725C67.8972 34.6819 68.0152 34.5554 68.0931 34.3953L68.9654 34.8947C68.7948 35.2023 68.5525 35.4467 68.2406 35.6321C67.9288 35.8155 67.5832 35.9082 67.204 35.9082H67.2019Z" fill="black"/>
<path d="M71.6582 31.7952C72.0838 31.7952 72.4357 31.9385 72.7138 32.2229C72.992 32.5095 73.131 32.9035 73.131 33.4071V35.8007H72.126V33.5335C72.126 33.2743 72.0565 33.0742 71.9153 32.9372C71.7741 32.8002 71.5887 32.7307 71.3548 32.7307C71.0956 32.7307 70.887 32.8108 70.7311 32.973C70.5752 33.1332 70.4972 33.3755 70.4972 33.6979V35.8028H69.4922V30.3477H70.4972V32.343C70.7417 31.9806 71.1293 31.7973 71.6582 31.7973V31.7952Z" fill="black"/>
<path d="M74.8378 34.2646C74.9726 34.7535 75.3392 34.9979 75.9376 34.9979C76.3211 34.9979 76.6119 34.8673 76.8099 34.6081L77.6212 35.0759C77.2377 35.6321 76.6709 35.9102 75.9229 35.9102C75.2781 35.9102 74.7619 35.7164 74.3721 35.3266C73.9823 34.9368 73.7885 34.4459 73.7885 33.8538C73.7885 33.2617 73.9802 32.7771 74.3658 32.3852C74.7493 31.9933 75.2444 31.7973 75.847 31.7973C76.418 31.7973 76.89 31.9954 77.2608 32.3894C77.6317 32.7834 77.8171 33.2722 77.8171 33.8538C77.8171 33.9844 77.8045 34.1214 77.7771 34.2668H74.8399L74.8378 34.2646ZM74.823 33.485H76.8099C76.753 33.2196 76.6351 33.0236 76.456 32.893C76.2769 32.7623 76.0725 32.697 75.8449 32.697C75.5752 32.697 75.3519 32.7665 75.1749 32.9035C74.9979 33.0405 74.882 33.2343 74.823 33.485Z" fill="black"/>
<path d="M79.5217 32.5727C79.6144 32.3241 79.7703 32.1366 79.9853 32.0122C80.2002 31.8879 80.4404 31.8247 80.7059 31.8247V32.9478C80.3982 32.9119 80.1243 32.973 79.8841 33.1353C79.6418 33.2954 79.5217 33.563 79.5217 33.9381V35.8007H78.5167V31.9048H79.5217V32.5748V32.5727Z" fill="black"/>
<path d="M81.7888 35.7059C81.6582 35.8365 81.5023 35.9018 81.3211 35.9018C81.1399 35.9018 80.9839 35.8365 80.8533 35.7059C80.7227 35.5752 80.6573 35.4193 80.6573 35.2381C80.6573 35.0569 80.7227 34.901 80.8533 34.7704C80.9839 34.6397 81.1399 34.5744 81.3211 34.5744C81.5023 34.5744 81.6582 34.6397 81.7888 34.7704C81.9195 34.901 81.9848 35.0569 81.9848 35.2381C81.9848 35.4193 81.9195 35.5752 81.7888 35.7059Z" fill="black"/>
<path d="M82.8255 35.8007V30.3308H83.8306V35.8007H82.8255Z" fill="black"/>
<path d="M85.2507 31.5403C85.0842 31.5403 84.941 31.4792 84.8187 31.357C84.6965 31.2347 84.6354 31.0915 84.6354 30.925C84.6354 30.7586 84.6965 30.6132 84.8187 30.4889C84.941 30.3645 85.0842 30.3013 85.2507 30.3013C85.4171 30.3013 85.5689 30.3645 85.6911 30.4889C85.8133 30.6132 85.8744 30.7586 85.8744 30.925C85.8744 31.0915 85.8133 31.2347 85.6911 31.357C85.5689 31.4792 85.4214 31.5403 85.2507 31.5403ZM84.7513 35.8007V31.9048H85.7564V35.8007H84.7513Z" fill="black"/>
<path d="M88.7716 31.2031C88.2217 31.161 87.9457 31.3822 87.9457 31.8647V31.9048H88.7716V32.8719H87.9457V35.8028H86.9406V32.8719H86.3801V31.9048H86.9406V31.8647C86.9406 31.3148 87.0944 30.8955 87.3999 30.611C87.7055 30.3245 88.1627 30.2002 88.7716 30.236V31.2031Z" fill="black"/>
<path d="M89.9326 34.2646C90.0675 34.7535 90.4341 34.9979 91.0325 34.9979C91.416 34.9979 91.7067 34.8673 91.9048 34.6081L92.716 35.0759C92.3325 35.6321 91.7657 35.9102 91.0177 35.9102C90.373 35.9102 89.8568 35.7164 89.467 35.3266C89.0772 34.9368 88.8833 34.4459 88.8833 33.8538C88.8833 33.2617 89.0751 32.7771 89.4606 32.3852C89.8441 31.9933 90.3393 31.7973 90.9419 31.7973C91.5129 31.7973 91.9849 31.9954 92.3557 32.3894C92.7265 32.7834 92.912 33.2722 92.912 33.8538C92.912 33.9844 92.8993 34.1214 92.8719 34.2668H89.9347L89.9326 34.2646ZM89.9179 33.485H91.9048C91.8479 33.2196 91.7299 33.0236 91.5508 32.893C91.3717 32.7623 91.1673 32.697 90.9398 32.697C90.6701 32.697 90.4467 32.7665 90.2697 32.9035C90.0927 33.0405 89.9769 33.2343 89.9179 33.485Z" fill="black"/>
<path d="M43.7042 15.078C43.7042 18.0847 41.3169 20.4741 38.2175 20.4741H35.394V25.7543H32.225V9.68396H38.2175C41.3169 9.68396 43.7042 12.0712 43.7042 15.078ZM40.5584 15.078C40.5584 13.6768 39.5702 12.6443 38.2175 12.6443H35.394V17.5116H38.2175C39.5723 17.5116 40.5584 16.456 40.5584 15.078Z" fill="#113DCD"/>
<path d="M56.5613 14.2751V25.7543H53.5988V24.3995C52.7729 25.4319 51.5318 26.0745 49.8567 26.0745C46.8036 26.0745 44.2773 23.4344 44.2773 20.0147C44.2773 16.595 46.8036 13.9528 49.8567 13.9528C51.5339 13.9528 52.7729 14.5954 53.5988 15.6279V14.273H56.5613V14.2751ZM53.5988 20.0147C53.5988 18.0868 52.244 16.7783 50.4088 16.7783C48.5735 16.7783 47.2398 18.0868 47.2398 20.0147C47.2398 21.9426 48.5946 23.2511 50.4088 23.2511C52.2229 23.2511 53.5988 21.9426 53.5988 20.0147Z" fill="#113DCD"/>
<path d="M71.5318 20.0147C71.5318 23.4345 69.0055 26.0746 65.9292 26.0746C64.252 26.0746 63.0363 25.4551 62.2103 24.3995V30.3455H59.2478V14.2752H62.2103V15.63C63.0363 14.5744 64.2541 13.9549 65.9292 13.9549C69.0055 13.9549 71.5318 16.595 71.5318 20.0168V20.0147ZM68.5693 20.0147C68.5693 18.0868 67.2145 16.7783 65.3793 16.7783C63.544 16.7783 62.2103 18.0868 62.2103 20.0147C62.2103 21.9427 63.5651 23.2511 65.3793 23.2511C67.1934 23.2511 68.5693 21.9427 68.5693 20.0147Z" fill="#113DCD"/>
<path d="M79.3595 23.3881C80.5078 23.3881 81.4265 22.9056 81.9301 22.2397L84.3173 23.6177C83.2385 25.1791 81.5171 26.0745 79.3131 26.0745C75.4572 26.0745 73.0236 23.4344 73.0236 20.0147C73.0236 16.595 75.4804 13.9528 79.0856 13.9528C82.4821 13.9528 84.8947 16.6392 84.8947 20.0147C84.8947 20.4509 84.8483 20.8407 84.7788 21.2305H76.1231C76.536 22.7454 77.7982 23.3881 79.3595 23.3881ZM81.9301 18.9338C81.5634 17.2819 80.3224 16.6161 79.0835 16.6161C77.499 16.6161 76.4202 17.4652 76.0767 18.9338H81.9301Z" fill="#113DCD"/>
<path d="M93.4113 14.0455V17.3515C91.8732 17.1682 89.922 17.8572 89.922 20.2676V25.7543H86.9595V14.2752H89.922V16.2495C90.5183 14.6882 91.9659 14.0455 93.4113 14.0455Z" fill="#113DCD"/>
<path d="M107.415 20.0147C107.415 23.4345 104.888 26.0746 101.812 26.0746C100.135 26.0746 98.9191 25.4551 98.0931 24.3995V30.3455H95.1306V14.2752H98.0931V15.63C98.9191 14.5744 100.137 13.9549 101.812 13.9549C104.888 13.9549 107.415 16.595 107.415 20.0168V20.0147ZM104.452 20.0147C104.452 18.0868 103.097 16.7783 101.262 16.7783C99.4269 16.7783 98.0931 18.0868 98.0931 20.0147C98.0931 21.9427 99.4479 23.2511 101.262 23.2511C103.076 23.2511 104.452 21.9427 104.452 20.0147Z" fill="#113DCD"/>
<path d="M121.19 14.2751V25.7543H118.228V24.3995C117.402 25.4319 116.161 26.0745 114.486 26.0745C111.433 26.0745 108.906 23.4344 108.906 20.0147C108.906 16.595 111.433 13.9528 114.486 13.9528C116.163 13.9528 117.402 14.5954 118.228 15.6279V14.273H121.19V14.2751ZM118.228 20.0147C118.228 18.0868 116.873 16.7783 115.038 16.7783C113.203 16.7783 111.869 18.0868 111.869 20.0147C111.869 21.9426 113.224 23.2511 115.038 23.2511C116.852 23.2511 118.228 21.9426 118.228 20.0147Z" fill="#113DCD"/>
<path d="M123.877 8.99493H126.839V25.7543H123.877V8.99493Z" fill="#113DCD"/>
<defs>
<linearGradient id="paint0_linear_733_1620" x1="6.67085" y1="17.7729" x2="12.9955" y2="33.4263" gradientUnits="userSpaceOnUse">
<stop stop-opacity="0"/>
<stop offset="1"/>
</linearGradient>
<linearGradient id="paint1_linear_733_1620" x1="13.346" y1="8.33755" x2="26.8985" y2="8.33755" gradientUnits="userSpaceOnUse">
<stop stop-opacity="0"/>
<stop offset="1"/>
</linearGradient>
<linearGradient id="paint2_linear_733_1620" x1="-0.00421407" y1="6.66245" x2="13.346" y2="6.66245" gradientUnits="userSpaceOnUse">
<stop stop-opacity="0"/>
<stop offset="1"/>
</linearGradient>
</defs>
</svg>
